# xmcd
# 
# Track frame offsets:
#     150
#     32151
#     65797
#     93655
#     144188
#     172834
#     178163
#     195133
#     245485
#     278579
#     318764
# 
# Disc length: 4552
# 
# Revision: 1
# Processed by: cddbd v1.5.2PL0 Copyright (c) Steve Scherf et al.
# Submitted via: fre:ac v1.0.17
# 
DISCID=8f11c60b
DTITLE=Tool - 10.000 Days
DYEAR=2006
DGENRE=Alt. Rock
TTITLE0=Vicarious
TTITLE1=Jambi
TTITLE2=Wings For Marie (Pt 1)
TTITLE3=10,000 Days (Wings Pt 2)
TTITLE4=The Pot
TTITLE5=Lipan Conjuring
TTITLE6=Lost Keys (Blame Hofmann)
TTITLE7=Rosetta Stoned
TTITLE8=Intension
TTITLE9=Right In Two
TTITLE10=Viginti Tres
EXTD=
EXTT0=
EXTT1=
EXTT2=
EXTT3=
EXTT4=
EXTT5=
EXTT6=
EXTT7=
EXTT8=
EXTT9=
EXTT10=
PLAYORDER=
